<svg xmlns="http://www.w3.org/2000/svg" width="32" height="32" viewBox="0 0 32 32">
  <rect width="32" height="32" fill="#F7F7F2"/>
  <rect x="0.5" y="0.5" width="31" height="31" fill="none" stroke="#2B7929" stroke-width="1"/>
  <svg x="2" y="6" width="28" height="20" viewBox="0 0 3779 2645">
    <!-- Generator: Adobe Illustrator 23.0.0, SVG Export Plug-In . SVG Version: 6.00 Build 0)  -->


<g>
	<g transform="translate(1324.680194, 1496.61615)">
	</g>
</g>
<path fill="#2B7929" d="M639.4,1376.9C1159,1007.3,1640.5,598.5,2081.1,137.5c254.1,327.7,522.8,628.9,819.2,919.4
	c21.8,21.4,52.2-15,30.5-36.2c-300-293.6-571.2-599.8-829.2-930.8c-9.3-12-25.7-12.6-36-1.5C1628.2,553.7,1140.3,978.7,612,1338.1
	C586.7,1355.3,614.4,1394.7,639.4,1376.9z M2697.6,658.5c47.6,1,80.9,19.9,109.4,57.7c16.7,22.1,60.9,18.9,73.2-6.7
	c29.1-60.8,73.1-82.5,135.2-99.3c45.6-12.4,40.4-80.9-8.1-83.4c-67.4-3.5-130.7,32.9-173.3,84.4c-37.3-29.6-82.7-46-132.8-47.7
	C2640,561.5,2636.4,657.3,2697.6,658.5z M2546.8,399c36-5,69.4,10.2,94.6,35.1c11,10.9,28.7,7.9,36.7-4.7
	c20.6-32.2,50.4-51.2,88.8-55.1c29.5-3,30.1-49.4,0-46.7c-46.1,4.1-83.7,23.9-112.5,57.4c-33-24.4-71-35.4-113.9-32.6
	C2506.4,354.5,2512.2,403.7,2546.8,399z M974.4,1197.8c-113,91.6-229.3,176.6-353.8,249c-26.4,15.3-3.3,57.2,23.2,41.5
	c126.2-75.1,257.6-169.4,358.8-261.2C1022.1,1209.3,994.5,1181.4,974.4,1197.8z M3066.1,1275.1c-20.2-22.9-56.4,12.9-33.6,33.6
	c90.4,82.1,169.6,176.4,259.2,259.4c20,18.6,48.1-9.7,29.9-29.9C3239.9,1447.3,3146.8,1366.7,3066.1,1275.1z M2077.6,278.9
	c209.9,278.2,434.6,543.8,676.6,794.7c20,20.7,51.4-10.8,31.6-31.6c-244.3-256.6-474.4-525.9-687.8-808.7
	c-7.8-10.4-24.6-16.5-34.8-4.5c-223.4,262.3-470.3,496.6-744.7,705.1c-27.1,20.6,1.4,58.5,28.8,37.3
	C1612.8,765.7,1857.7,532.9,2077.6,278.9z M2932.3,2225.9c-43.2,3.7-86.6,6.9-130.1,8.8c-0.1-9.1-0.2-18.1-0.3-27.2
	c65.7-51.2,132.3-101.8,196.3-155.1c18.1-15.1-6.1-47-25.4-32.9c-58.2,42.4-114.9,87.1-171.6,131.6c-0.5-33.9-1.1-67.8-1.8-101.6
	c31.4-35.9,60.9-73.1,88.9-111.8c17.6-24.3-23.2-48.3-40.4-23.6c-15.9,22.7-32.7,44.6-50.1,66c-1-39.9-2.2-79.8-3.5-119.6
	c-1-28.6-45-28.8-44.6,0c0.4,39.1,1.1,78.2,1.8,117.3c-11.3-15.6-22.6-31.3-33.9-46.9c-17.8-24.7-59.3-0.4-41,24
	c25.5,34.1,50.9,68.2,76.4,102.3c0.1,0.1,0.2,0.2,0.3,0.4c0.7,30.7,1.6,61.4,2.5,92c-45.4-31.4-90-65-130.9-101.3
	c-25.5-22.6-57.1,17.2-28.8,37.3c54.5,38.7,107.8,79.3,161.4,119.2c0.4,10.5,0.7,21,1.1,31.5c-43.6,1.1-87.2,0.9-130.7-1.2
	c-20.1-1-19.7,18.6-20.3,34.4c-5.3,149.8,43.4,231.8,183.1,235c148.8,3.4,183.1-141.1,164.1-261.5
	C2953.3,2233.7,2941.6,2225,2932.3,2225.9z M2781.8,2459.3c-99.4-6.4-143.6-87.2-130-176.9c87.1-0.5,173.8-2.1,260.7-8.7
	C2922.5,2365.1,2894.9,2466.5,2781.8,2459.3z M3121.7,1758.2c12.7-18,6-45.5-14.9-53.5c-16.3-6.2-34.8,2.4-41.1,17.6
	c-9.4,11.3-10.9,28-0.5,40.5C3080.3,1780.8,3108.8,1776.3,3121.7,1758.2z M3205.8,2130.9c-29.1,0.1-58.2,0.4-87.4,0.7
	c-4.7-84.4-2.8-170.7-0.1-255.2c9-2.1,18-5.2,26.7-9.4c71.2-34.1,100.3-124.3,62.1-193.8c-29.1-52.9-79-74.5-136-61.8
	c-93.6,20.8-115,110-99.6,174.7c12.2,50.9,53.2,84.9,100.2,92c3.5,84,6.2,169.8,2.3,253.8c-22.4,0.1-44.8,0.1-67.2-0.3
	c-19.5-0.3-22.5,24.2-22.6,39.3c-0.8,94.6-25.4,333,132,315.6c150.7-16.7,118.6-232.8,112.9-332.3
	C3228.5,2141.7,3219.1,2130.9,3205.8,2130.9z M3014.3,1759.4c-2.7-34.4,7-62.1,26.1-80.2c30.7-29.1,86.5-37.7,120.2,9.3
	c33,46.1,13.8,112.7-36.7,136.2C3072.6,1848.6,3018.8,1815.9,3014.3,1759.4z M3164.9,2395.4c-11.2,20.9-38.4,42.9-69.6,38
	c-28.8-4.5-48.9-28.3-55.3-76.8c-2.6-19.9-2.4-41-3.3-61c-1.7-38.9-2.7-77.8-3.6-116.7c50.3-0.8,100.6-0.8,150.8-1.1
	C3189.4,2248,3197,2335.8,3164.9,2395.4z M877,2154.3c249.5-24.3,168.5-349-35.5-299.9c-3.7-91.2-20.4-242.1-131.6-241.6
	c-111.6,0.5-129.1,110-130.6,199.6c-31.5-14.3-67-12.9-95.8,15.2c-40.8,39.8-30.3,93.7-4.6,137.1c-50.6,26.9-68.8,95.5-17.1,145.4
	c35.5,34.3,109.5,37.7,155.4,41.6c25.6,2.2,50.3,3.9,74,5.1c1.6,20.1-0.1,40.3,0.3,60.4c0.4,19.1,1.1,38,1.2,57
	c-45.8,1.2-89.3-0.7-140,6.5c-29.9,4.3-25.5,41.3-22.2,63.2c5.6,37.8,20.7,78.9,57.1,114.5c37.3,36.6,85.8,49.8,136.9,45.1
	c120.2-11.1,180.1-83.6,177.4-202.8c-0.3-13-10-22.7-22.9-23.5c-46.7-2.9-93.4-4.8-140.1-4.3c-2-37.7-5.9-76.8-4.5-114.5
	C786.1,2159.8,833.4,2158.6,877,2154.3z M855.3,2323c-1.5,39.2-10.1,78.4-42.7,103.5c-27.8,21.4-74.2,31.3-108.6,31.2
	c-40.8-0.1-79.2-20.1-101.6-54.7c-15.5-23.9-21.8-49.1-25.5-75C667.7,2328.8,763.9,2318.9,855.3,2323z M575.1,2095.3
	c-48.1-8.1-87.3-15-88.7-50.8c-1.6-42.3,42.3-47.3,47.6-81.5c4.2-27.5-46.8-48.4-24.7-87.1c20.2-35.3,69.8-12.1,71.9-10
	c17.7,17.1,45.7,18.7,45.9-9.2c0.4-78.4,0.1-206,88.5-194.8c74.3,9.3,80.8,174.8,85.2,220.8c1.4,14.3,14.1,21.8,27.5,18.5
	c89-30.7,132.3,11.6,148,79.6c13.3,57.6-16.1,95.4-79.2,117.1C819.7,2124.7,643.9,2106.8,575.1,2095.3z M1260,2347.1
	c-33.7,15-64.8,36.2-98.2,51.6c1-14.3,2.1-28.5,2.8-42.7c18.1-3.5,35.7-11.4,51.3-24.4c64.9-54.3,66.8-174.2-7.7-221
	c-62.4-39.2-125.8-8.7-164.1,40.9c-26,33.7-32.5,81-16.2,126.4c14.7,41,50,68.9,89.3,77.5c-0.4,15.9-0.5,32-0.7,48.1
	c-4-1.8-8.5-4.1-13.9-6.9c-17.1-8.8-34.1-17.9-50.7-27.7c-26.9-16-51.4,28.9-24,41.1c25.8,11.4,56.7,35.2,86.9,44
	c-0.5,7.5-1.1,15-2,22.5c-3.3,29.1,47.4,30.5,46.3,0c-0.3-7.9-0.3-15.8-0.2-23.7c12.2-4.8,23.7-12.5,34.7-18.3
	c29.8-15.8,60.3-30.7,88.7-48.7C1307.4,2370,1285.8,2335.7,1260,2347.1z M1069.6,2255.1c-16.7-68.8,35-138.7,105.6-109.4
	c56.2,23.3,53.7,112.3,11.8,148.7C1145.5,2330.4,1082,2306.2,1069.6,2255.1z M3293.8,1448.6c19.9,20.1,47.5-13.5,28.2-33.5
	c-32.3-33.6-64.7-67.1-97-100.7c-20.3-21.1-50,14.1-29.4,34.9C3228.4,1382.5,3261.1,1415.5,3293.8,1448.6z M2552.2,2455.7
	c-91.4-30.1-164.3-3.9-254.8,16.2c-124.4,27.6-228.8-29.3-350.6-27c-39.8,0.7-73.4,13.3-111.1,24.9c-77.8,24-139.5,15.6-216.7-4.2
	c-81.6-21-147.6-31.1-227.7,0.1c-32.1,12.5-12.1,59.8,18.3,43.4c101.2-54.4,201.2,16.2,302.1,24.8c91.9,7.8,162.6-45.8,253.3-42.7
	c87.5,3,168.9,43.3,257.4,40.2c110.8-3.8,203.9-67.8,317.3-30.3C2568.5,2510.8,2581,2465.2,2552.2,2455.7z M1132.7,2193.8
	c-17.1,7.4-24.8,28.2-19.5,45c2.5,11.6,10.4,21.5,24,25c24,6,46.4-14.5,45.1-38.5C1181,2200.8,1155.9,2183.8,1132.7,2193.8z
	 M1208.2,1284v-125.6c0-10.5-2.6-20.6-7.7-30.1c-5.2-9.5-12.9-17.3-23.4-23.2c-10.4-5.9-23.9-8.9-40.4-8.9H1073
	c-3.6,0-6,0.6-7.2,1.9c-1.2,1.3-1.7,3.7-1.7,7.3v419.6c0,3.3,0.6,5.7,1.7,7.1c1.2,1.4,3.6,2.1,7.2,2.1h21.2c5.2,0,9.7-1.8,13.7-5.4
	c4-3.6,6-8.1,6-13.5v-161.5h22c7.7,0,13.4,1.9,17,5.8c3.6,3.9,5.4,8.4,5.4,13.5v142.2c0,5.4,2,9.9,6,13.5c4,3.6,8.4,5.4,13.3,5.4
	h21.3c3.6,0,6-0.7,7.3-2.1c1.3-1.4,1.9-3.8,1.9-7.1v-151.9c0-18.8-8.1-31.9-24.3-39.4C1200.1,1324.1,1208.2,1307.4,1208.2,1284z
	 M1158.4,1283.2c0,6.4-1.4,12.7-4.2,18.7c-2.8,6.1-8.2,9.1-16.2,9.1H1114v-171.9h22c7.7,0,13.4,2,17,6c3.6,4,5.4,8.6,5.4,13.7
	V1283.2z M1470,1139.5c7.2,0,12.8-2.1,16.8-6.4c4-4.2,6-10.6,6-19.1v-7.4c0-6.7-3-10-8.9-10h-92c-5.9,0-9.8,0.5-11.8,1.4
	c-1.9,0.9-2.9,3.5-2.9,7.9v419.2c0,3.6,0.6,6,1.9,7.3c1.3,1.3,4.3,1.9,8.9,1.9h95.8c5.9,0,8.9-3.3,8.9-10v-7.4
	c0-17-7.6-25.5-22.8-25.5h-42.9V1340h27.8c8.2,0,15.4-1.7,21.4-5c6-3.4,9.1-10.1,9.1-20.1v-7.7c0-6.7-3-10-8.9-10h-49.5v-157.6H1470
	z M1752.8,1288.6c4.2,2.3,8.3,3.5,12.2,3.5h22.4c5.7,0,8.5-2.6,8.5-7.7v-133.7c0-11.6-2.9-22-8.7-31.3c-5.8-9.3-14-16.7-24.7-22.2
	c-10.7-5.5-23.4-8.3-38.1-8.3c-14.7,0-27.5,2.7-38.4,8.1c-10.9,5.4-19.4,12.8-25.3,22.2c-5.9,9.4-8.9,19.9-8.9,31.5v329.2
	c0,11.6,2.9,22.1,8.7,31.5c5.8,9.4,14,16.8,24.7,22.2c10.7,5.4,23.4,8.1,38.1,8.1c14.9,0,27.8-2.7,38.6-8.1
	c10.8-5.4,19.2-12.8,25.1-22.2c5.9-9.4,8.9-19.9,8.9-31.5v-129.8c0-4.9-3-7.4-8.9-7.4h-22.4c-3.6,0-7.6,1.1-12,3.3
	c-4.4,2.2-6.6,6-6.6,11.4v121c0,4.4-1.6,8.7-4.8,12.9c-3.2,4.2-9,6.4-17.2,6.4c-7.7,0-13.4-2-17-6c-3.6-4-5.4-8.4-5.4-13.3v-325.7
	c0-5.1,1.9-9.7,5.6-13.7c3.7-4,9.2-6,16.4-6c7.5,0,13.1,2,17,6c3.9,4,5.8,8.6,5.8,13.7v124.8
	C1746.4,1282.6,1748.5,1286.3,1752.8,1288.6z M2042.5,1457.1l3.9,58.7c0.3,5.7,2.6,10.2,7.1,13.5c4.5,3.3,9.2,5,14.1,5h21.2
	c5.4,0,8.1-1.9,8.1-5.8c0-0.5-0.1-1-0.2-1.5c-0.1-0.5-0.2-1-0.2-1.6l-37.5-418.1c-0.8-7.2-4.8-10.8-12-10.8H2002
	c-7,0-10.8,3.6-11.6,10.8l-38.3,418.1v1.9c0,2.6,0.5,4.4,1.5,5.4c1,1,3.2,1.5,6.6,1.5h21.2c5.2,0,9.9-1.7,14.3-5
	c4.4-3.3,6.7-7.9,7-13.5l3.5-58.7H2042.5z M2024.4,1167.7l0.4-1.6l15.5,252.7h-31.7L2024.4,1167.7z M2395.9,1525.1v-419.6
	c0-3.3-0.5-5.7-1.6-6.9c-1-1.3-3.5-1.9-7.3-1.9h-21.6c-4.9,0-9.4,1.7-13.3,5c-4,3.3-6,7.7-6,13.1v1.1l8.9,262l-49.1-250
	c-1.8-9.8-4.6-17.5-8.5-23c-3.9-5.5-8.4-8.3-13.5-8.3h-21.6c-3.9,0-6.3,0.6-7.4,1.9c-1,1.3-1.5,3.6-1.5,6.9v419.6
	c0,6.2,3.1,9.3,9.3,9.3h20.5c5.4,0,10.1-1.7,14.1-5c4-3.3,6-7.9,6-13.5v-1.1l-8.9-262.8l49.8,253.1c1.6,7.2,3.9,13.9,7,20.1
	c3.1,6.2,8.1,9.3,15.1,9.3h20.5C2392.8,1534.4,2395.9,1531.3,2395.9,1525.1z M2610.1,1534.4h28.6c7.2,0,10.8-3.6,10.8-10.8v-384.1
	h22.8c7.2,0,12.8-2.1,16.8-6.4c4-4.2,6-10.6,6-19.1v-7.4c0-6.7-3-10-8.9-10H2561c-5.9,0-8.9,3.3-8.9,10v7.4c0,17,7.6,25.5,22.8,25.5
	h24.7v384.1C2599.6,1530.8,2603.1,1534.4,2610.1,1534.4z M2964,1097.8c-10.7-5.9-24.2-8.9-40.4-8.9c-15.7,0-28.9,3-39.6,8.9
	c-10.7,5.9-18.7,13.6-24.2,23c-5.4,9.4-8.1,19.5-8.1,30.3v328c0,10,2.6,19.8,7.7,29.4c5.2,9.5,13.1,17.4,23.8,23.6
	c10.7,6.2,24.3,9.3,40.8,9.3c16.5,0,30-3.2,40.6-9.5c10.6-6.3,18.4-14.2,23.6-23.8c5.1-9.5,7.7-19.2,7.7-29v-328
	c0-10.8-2.6-20.9-7.9-30.3C2982.6,1111.4,2974.6,1103.7,2964,1097.8z M2946,1478c0,4.9-1.7,9.4-5,13.5c-3.3,4.1-8.9,6.2-16.6,6.2
	c-8,0-13.8-2-17.4-6c-3.6-4-5.4-8.6-5.4-13.7v-325.3c0-5.1,1.7-9.7,5.2-13.7c3.5-4,9.1-6,16.8-6c8,0,13.7,2,17.2,6
	c3.5,4,5.2,8.6,5.2,13.7V1478z M1305,1739.5c-9.3-5-20.4-7.4-33.3-7.4h-55.2c-3.7,0-6.2,0.7-7.4,2.1c-1.2,1.4-1.9,3.9-1.9,7.4v243.7
	c0,3.4,0.6,5.8,1.9,7.3c1.2,1.5,3.7,2.2,7.4,2.2h53.3c12.8,0,24-2.4,33.6-7.1c9.6-4.7,17.1-11.1,22.5-19.2c5.4-8.1,8.1-17.1,8.1-27
	v-156.3c0-9.4-2.5-18.1-7.5-26.2C1321.6,1750.9,1314.4,1744.4,1305,1739.5z M1282.9,1941.2c0,2.5-1.1,4.9-3.4,7.2
	c-2.2,2.3-4.9,3.5-8,3.5h-12.7V1775h11.8c3.6,0,6.5,1.1,8.8,3.4c2.3,2.2,3.5,4.7,3.5,7.3V1941.2z M1442.2,1992.4
	c9.5,4.9,20.8,7.4,34,7.4c12.8,0,24-2.5,33.5-7.4c9.5-5,16.9-11.5,22.1-19.6c5.3-8.1,7.9-16.9,7.9-26.3v-167.1
	c0-9.6-2.6-18.4-7.8-26.4c-5.2-8-12.5-14.5-22-19.3c-9.5-4.9-20.8-7.3-34-7.3c-12.7,0-23.8,2.4-33.3,7.3
	c-9.5,4.9-16.9,11.3-22.1,19.3c-5.2,8-7.9,16.8-7.9,26.4v167.1c0,9.4,2.5,18.2,7.6,26.3C1425.4,1980.9,1432.7,1987.5,1442.2,1992.4z
	 M1464.1,1781.4c0-2.6,1.1-5.1,3.4-7.3c2.2-2.2,5.1-3.4,8.5-3.4c3.6,0,6.5,1.1,8.8,3.4c2.3,2.2,3.5,4.7,3.5,7.3v163.5
	c0,2.3-1,4.7-3.1,7.1c-2.1,2.4-4.9,3.6-8.5,3.6c-3.6,0-6.5-1-8.9-3.1c-2.4-2.1-3.6-4.6-3.6-7.5V1781.4z M1699,1825.4
	c3.5,2.2,7.2,3.4,11,3.4h26.2c5.9,0,8.8-2.9,8.8-8.6v-40.6c0-9.7-2.7-18.6-8-26.7c-5.3-8-12.8-14.5-22.5-19.2
	c-9.7-4.8-21-7.2-34-7.2c-12.5,0-23.4,2.4-32.8,7.2c-9.3,4.8-16.6,11.2-21.8,19.2c-5.2,8-7.8,16.9-7.8,26.7c0,14.4,1.3,26.8,4,37.3
	c2.7,10.5,6.3,19.6,10.8,27.2c4.5,7.7,9.4,14.5,14.8,20.4c5.4,5.9,10.8,11.6,16.2,17c5.4,5.4,10.4,11,14.8,16.9
	c4.5,5.9,8.1,12.6,10.8,20.1c2.7,7.5,4.1,16.3,4.1,26.6c0,2.5-1.2,4.9-3.5,7.2c-2.3,2.3-5.3,3.5-8.8,3.5c-3.2,0-6-1.2-8.4-3.5
	c-2.3-2.3-3.5-4.7-3.5-7.2V1915c0-4-1.8-7.1-5.5-9.1c-3.6-2.1-7.3-3.1-11-3.1H1627c-5.9,0-8.8,2.8-8.8,8.4v36.4
	c0,9.6,2.6,18.4,7.8,26.4c5.2,8,12.5,14.5,22,19.2c9.5,4.8,20.7,7.2,33.5,7.2c13.1,0,24.4-2.4,33.8-7.2c9.4-4.8,16.7-11.2,21.9-19.2
	c5.2-8,7.8-16.8,7.8-26.4c0-15.6-1.4-28.9-4.1-39.9c-2.7-11-6.3-20.3-10.8-27.9c-4.5-7.6-9.4-14.3-14.7-20.1
	c-5.3-5.7-10.7-11-16.1-16c-5.4-4.9-10.4-10.2-14.8-15.8c-4.5-5.6-8.1-12-10.8-19.4c-2.7-7.3-4.1-16.3-4.1-27c0-2.2,1.1-4.4,3.4-6.8
	c2.2-2.4,5.1-3.6,8.5-3.6c3.6,0,6.5,1.2,8.8,3.5c2.3,2.3,3.5,4.8,3.5,7.4v34.3C1693.8,1820.1,1695.5,1823.1,1699,1825.4z
	 M1971.3,1732.1c-4.5,0-8.5,1.7-12.2,5.1c-3.6,3.4-5.4,7.7-5.4,13v234.6c0,3.7,0.8,6.3,2.3,7.8c1.5,1.5,4.1,2.2,7.6,2.2h31.5
	c3.6,0,6.1-0.7,7.7-2.2c1.5-1.5,2.3-4.1,2.3-7.8v-243.7c0-3.6-0.5-5.9-1.6-7.2c-1.1-1.2-3.6-1.9-7.6-1.9H1971.3z M2092.5,1994.7
	h24.3c4.5,0,8.6-1.7,12.3-5.2c3.7-3.5,5.6-7.6,5.6-12.4v-67.2h10.9c13,0,24.3-2.4,34-7.2c9.7-4.8,17.2-11.2,22.5-19.2
	c5.3-8,8-16.9,8-26.7v-71.6c0-9.7-2.6-18.6-7.8-26.7c-5.2-8-12.4-14.5-21.7-19.2c-9.3-4.8-20.2-7.2-32.9-7.2h-55.2
	c-3.7,0-6.2,0.7-7.4,2.1c-1.2,1.4-1.9,3.9-1.9,7.4v243.7c0,3.4,0.6,5.8,1.9,7.3C2086.3,1994,2088.8,1994.7,2092.5,1994.7z
	 M2134.7,1775h11.8c3.6,0,6.5,1.1,8.8,3.4c2.3,2.2,3.5,4.7,3.5,7.3v70.7c0,2.5-1.1,4.9-3.4,7.2c-2.2,2.3-4.9,3.5-8,3.5h-12.7V1775z
	 M2313.4,1718.2c3.6,0,6.4-1,8.5-3c2.1-2,3.2-4.5,3.4-7.4l3.5-37.1l3.2,37.1c0.3,2.9,1.5,5.4,3.7,7.4c2.2,2,4.9,3,8.4,3h19.2
	c1.7,0,2.8-0.3,3.5-1c0.6-0.7,0.9-1.7,0.9-3.1l-17.6-57c-0.8-2.8-2.5-4.2-5.3-4.2h-32c-2.8,0-4.6,1.4-5.3,4.2l-17.4,57
	c0,1.4,0.3,2.4,0.8,3.1c0.5,0.7,1.7,1,3.4,1H2313.4z M2359.7,1775c7.1,0,12.5-2.3,16.3-6.8c3.8-4.6,5.7-10.9,5.7-18.9v-7.6
	c0-3.1-0.9-5.5-2.7-7.1c-1.8-1.6-4.2-2.4-7.3-2.4h-75.1c-5.6,0-9.3,0.5-11.2,1.4c-1.9,0.9-2.9,3.6-2.9,8.1v243.9
	c0,3.4,0.6,5.8,1.9,7.2c1.2,1.4,3.8,2.1,7.6,2.1h79.8c3.1,0,5.5-0.8,7.3-2.5c1.8-1.7,2.7-4,2.7-7v-7.7c0-8.2-1.9-14.5-5.6-19
	c-3.7-4.5-9.2-6.7-16.5-6.7H2334v-64.9h16.9c7.3,0,12.9-2.2,16.9-6.5c4-4.3,6-10.7,6-19v-7.9c0-3.1-0.9-5.4-2.7-7.1
	c-1.8-1.6-4.2-2.4-7.3-2.4H2334V1775H2359.7z M2549.2,1733.7c-9.7-4.8-21-7.2-34-7.2c-12.5,0-23.4,2.4-32.8,7.2
	c-9.3,4.8-16.6,11.2-21.8,19.2c-5.2,8-7.8,16.9-7.8,26.7c0,14.4,1.3,26.8,4,37.3c2.7,10.5,6.3,19.6,10.8,27.2
	c4.5,7.7,9.4,14.5,14.8,20.4c5.4,5.9,10.8,11.6,16.2,17c5.4,5.4,10.4,11,14.8,16.9c4.5,5.9,8.1,12.6,10.8,20.1
	c2.7,7.5,4.1,16.3,4.1,26.6c0,2.5-1.2,4.9-3.5,7.2c-2.3,2.3-5.3,3.5-8.8,3.5c-3.2,0-6-1.2-8.4-3.5c-2.3-2.3-3.5-4.7-3.5-7.2V1915
	c0-4-1.8-7.1-5.5-9.1c-3.6-2.1-7.3-3.1-11-3.1h-26.2c-5.9,0-8.8,2.8-8.8,8.4v36.4c0,9.6,2.6,18.4,7.8,26.4c5.2,8,12.5,14.5,22,19.2
	c9.5,4.8,20.7,7.2,33.5,7.2c13.1,0,24.4-2.4,33.8-7.2c9.4-4.8,16.7-11.2,21.9-19.2c5.2-8,7.8-16.8,7.8-26.4
	c0-15.6-1.4-28.9-4.1-39.9c-2.7-11-6.3-20.3-10.8-27.9c-4.5-7.6-9.4-14.3-14.7-20.1c-5.3-5.7-10.7-11-16.1-16
	c-5.4-4.9-10.4-10.2-14.8-15.8c-4.5-5.6-8.1-12-10.8-19.4c-2.7-7.3-4.1-16.3-4.1-27c0-2.2,1.1-4.4,3.4-6.8c2.2-2.4,5.1-3.6,8.5-3.6
	c3.6,0,6.5,1.2,8.8,3.5c2.3,2.3,3.5,4.8,3.5,7.4v34.3c0,3.9,1.7,6.9,5.2,9.2c3.5,2.2,7.2,3.4,11,3.4h26.2c5.9,0,8.8-2.9,8.8-8.6
	v-40.6c0-9.7-2.7-18.6-8-26.7C2566.3,1744.9,2558.8,1738.5,2549.2,1733.7z"/>
  </svg>
</svg>